ply
format ascii 1.0
comment Created by Blender 2.61 (sub 0) - www.blender.org, source file: ''
element vertex 507
property float x
property float y
property float z
property float nx
property float ny
property float nz
element face 500
property list uchar uint vertex_indices
end_header
0.468750 0.242188 0.757812 0.977691 -0.011017 0.209723
0.437500 0.164062 0.765625 0.727683 -0.654500 0.205084
0.500000 0.093750 0.687500 0.604022 -0.510239 0.612171
0.562500 0.242188 0.671875 0.802057 -0.003388 0.597186
-0.500000 0.093750 0.687500 -0.604022 -0.510239 0.612171
-0.437500 0.164062 0.765625 -0.727683 -0.654500 0.205084
-0.468750 0.242188 0.757812 -0.977691 -0.011017 0.209723
-0.562500 0.242188 0.671875 -0.802057 -0.003388 0.597186
0.546875 0.054688 0.578125 0.682943 -0.547472 0.483535
0.625000 0.242188 0.562500 0.868404 -0.003265 0.495773
-0.546875 0.054688 0.578125 -0.682943 -0.547472 0.483535
-0.625000 0.242188 0.562500 -0.868404 -0.003265 0.495773
0.351562 0.031250 0.718750 0.098209 -0.750969 0.652974
0.351562 -0.023438 0.617188 0.115879 -0.866970 0.484664
-0.351562 -0.023438 0.617188 -0.115879 -0.866970 0.484664
-0.351562 0.031250 0.718750 -0.098209 -0.750969 0.652974
0.351562 0.132812 0.781250 0.037507 -0.965056 0.259224
-0.351562 0.132812 0.781250 -0.037507 -0.965056 0.259224
0.273438 0.164062 0.796875 -0.655354 -0.692801 0.300821
0.203125 0.093750 0.742188 -0.451369 -0.539323 0.710868
-0.203125 0.093750 0.742188 0.451369 -0.539323 0.710868
-0.273438 0.164062 0.796875 0.655354 -0.692801 0.300821
0.156250 0.054688 0.648438 -0.551225 -0.635792 0.540208
-0.156250 0.054688 0.648438 0.551225 -0.635792 0.540208
0.140625 0.242188 0.742188 -0.693991 -0.003510 0.719932
0.078125 0.242188 0.656250 -0.814783 -0.003784 0.579699
-0.078125 0.242188 0.656250 0.814783 -0.003784 0.579699
-0.140625 0.242188 0.742188 0.693991 -0.003510 0.719932
0.242188 0.242188 0.796875 -0.946043 -0.012848 0.323679
-0.242188 0.242188 0.796875 0.946043 -0.012848 0.323679
0.273438 0.328125 0.796875 -0.662160 0.691397 0.288919
0.203125 0.390625 0.742188 -0.455123 0.525071 0.719108
-0.203125 0.390625 0.742188 0.455123 0.525071 0.719108
-0.273438 0.328125 0.796875 0.662160 0.691397 0.288919
0.156250 0.437500 0.648438 -0.529771 0.626576 0.571581
-0.156250 0.437500 0.648438 0.529771 0.626576 0.571581
0.351562 0.453125 0.718750 0.101871 0.740135 0.664663
0.351562 0.515625 0.617188 0.122410 0.837306 0.532823
-0.351562 0.515625 0.617188 -0.122410 0.837306 0.532823
-0.351562 0.453125 0.718750 -0.101871 0.740135 0.664663
0.351562 0.359375 0.781250 0.032075 0.971007 0.236854
-0.351562 0.359375 0.781250 -0.032075 0.971007 0.236854
0.437500 0.328125 0.765625 0.732047 0.652730 0.194922
0.500000 0.390625 0.687500 0.608448 0.494919 0.620289
-0.500000 0.390625 0.687500 -0.608448 0.494919 0.620289
-0.437500 0.328125 0.765625 -0.732047 0.652730 0.194922
0.546875 0.437500 0.578125 0.672201 0.538133 0.508438
-0.546875 0.437500 0.578125 -0.672201 0.538133 0.508438
0.445312 0.335938 0.781250 0.721976 0.649861 0.237434
0.476562 0.242188 0.773438 0.973724 -0.012207 0.227271
-0.445312 0.335938 0.781250 -0.721976 0.649861 0.237434
-0.476562 0.242188 0.773438 -0.973724 -0.012207 0.227271
0.351562 0.375000 0.804688 0.037446 0.933561 0.356395
-0.351562 0.375000 0.804688 -0.037446 0.933561 0.356395
0.265625 0.335938 0.820312 -0.626331 0.647023 0.434767
-0.265625 0.335938 0.820312 0.626331 0.647023 0.434767
0.226562 0.242188 0.820312 -0.911252 -0.012268 0.411603
-0.226562 0.242188 0.820312 0.911252 -0.012268 0.411603
0.265625 0.156250 0.820312 -0.618122 -0.653768 0.436415
-0.265625 0.156250 0.820312 0.618122 -0.653768 0.436415
0.351562 0.117188 0.804688 0.036927 -0.935087 0.352397
-0.351562 0.117188 0.804688 -0.036927 -0.935087 0.352397
0.445312 0.156250 0.781250 0.715049 -0.656880 0.239051
-0.445312 0.156250 0.781250 -0.715049 -0.656880 0.239051
0.351562 0.242188 0.828125 0.183599 -0.005310 0.982971
-0.351562 0.242188 0.828125 -0.183599 -0.005310 0.982971
0.179688 -0.968750 0.554688 0.157628 -0.974487 0.159581
0.164062 -0.929688 0.632812 0.167852 -0.753471 0.635639
0.000000 -0.945312 0.640625 0.000000 -0.792169 0.610248
0.000000 -0.984375 0.578125 0.000000 -0.977722 0.209815
-0.164062 -0.929688 0.632812 -0.167852 -0.753471 0.635639
-0.179688 -0.968750 0.554688 -0.157628 -0.974487 0.159581
0.328125 -0.945312 0.523438 0.654103 -0.741752 0.147984
0.234375 -0.914062 0.632812 0.362987 -0.618397 0.696951
-0.234375 -0.914062 0.632812 -0.362987 -0.618397 0.696951
-0.328125 -0.945312 0.523438 -0.654103 -0.741752 0.147984
0.367188 -0.890625 0.531250 0.969573 -0.147282 0.195379
0.265625 -0.820312 0.664062 0.555895 -0.215979 0.802667
-0.265625 -0.820312 0.664062 -0.555895 -0.215979 0.802667
-0.367188 -0.890625 0.531250 -0.969573 -0.147282 0.195379
0.351562 -0.695312 0.570312 0.975768 0.094852 0.197028
0.250000 -0.703125 0.687500 0.567827 -0.032960 0.822443
-0.250000 -0.703125 0.687500 -0.567827 -0.032960 0.822443
-0.351562 -0.695312 0.570312 -0.975768 0.094852 0.197028
0.312500 -0.437500 0.570312 0.965117 0.218940 0.143498
0.210938 -0.445312 0.710938 0.587207 0.111942 0.801630
-0.210938 -0.445312 0.710938 -0.587207 0.111942 0.801630
-0.312500 -0.437500 0.570312 -0.965117 0.218940 0.143498
0.203125 -0.187500 0.562500 0.905301 -0.389111 0.170263
0.437500 -0.140625 0.531250 0.360546 -0.931608 0.045442
0.398438 -0.046875 0.671875 0.380871 -0.517563 0.766167
0.125000 -0.101562 0.812500 0.066317 -0.192907 0.978942
-0.398438 -0.046875 0.671875 -0.380871 -0.517563 0.766167
-0.437500 -0.140625 0.531250 -0.360546 -0.931608 0.045442
-0.203125 -0.187500 0.562500 -0.905301 -0.389111 0.170263
-0.125000 -0.101562 0.812500 -0.066317 -0.192907 0.978942
0.632812 -0.039062 0.539062 0.588885 -0.790796 0.166784
0.617188 0.054688 0.625000 0.498733 -0.401135 0.768303
-0.617188 0.054688 0.625000 -0.498733 -0.401135 0.768303
-0.632812 -0.039062 0.539062 -0.588885 -0.790796 0.166784
0.828125 0.148438 0.445312 0.912625 -0.402722 -0.069796
0.726562 0.203125 0.601562 0.548906 -0.326579 0.769402
-0.726562 0.203125 0.601562 -0.548906 -0.326579 0.769402
-0.828125 0.148438 0.445312 -0.912625 -0.402722 -0.069796
0.859375 0.429688 0.593750 0.880123 0.423841 0.213782
0.742188 0.375000 0.656250 0.487533 -0.147038 0.860591
-0.742188 0.375000 0.656250 -0.487533 -0.147038 0.860591
-0.859375 0.429688 0.593750 -0.880123 0.423841 0.213782
0.710938 0.484375 0.625000 0.509964 0.833003 0.214393
0.687500 0.414062 0.726562 0.341685 -0.032533 0.939238
-0.687500 0.414062 0.726562 -0.341685 -0.032533 0.939238
-0.710938 0.484375 0.625000 -0.509964 0.833003 0.214393
0.492188 0.601562 0.687500 0.597766 0.783776 0.168310
0.437500 0.546875 0.796875 0.314127 -0.030366 0.948882
-0.437500 0.546875 0.796875 -0.314127 -0.030366 0.948882
-0.492188 0.601562 0.687500 -0.597766 0.783776 0.168310
0.320312 0.757812 0.734375 0.228278 0.958800 0.168920
0.312500 0.640625 0.835938 0.271126 0.213019 0.938658
-0.312500 0.640625 0.835938 -0.271126 0.213019 0.938658
-0.320312 0.757812 0.734375 -0.228278 0.958800 0.168920
0.156250 0.718750 0.757812 -0.598682 0.777337 0.192999
0.203125 0.617188 0.851562 -0.164251 0.159032 0.973479
-0.203125 0.617188 0.851562 0.164251 0.159032 0.973479
-0.156250 0.718750 0.757812 0.598682 0.777337 0.192999
0.062500 0.492188 0.750000 -0.791742 0.582873 0.182562
0.101562 0.429688 0.843750 -0.072939 -0.028687 0.996918
-0.101562 0.429688 0.843750 0.072939 -0.028687 0.996918
-0.062500 0.492188 0.750000 0.791742 0.582873 0.182562
0.000000 0.429688 0.742188 0.000000 0.959532 0.281564
0.000000 0.351562 0.820312 0.000000 -0.024079 0.999695
0.164062 0.414062 0.773438 0.265389 -0.203955 0.942289
0.250000 0.468750 0.757812 0.266030 -0.125706 0.955718
-0.250000 0.468750 0.757812 -0.266030 -0.125706 0.955718
-0.164062 0.414062 0.773438 -0.265389 -0.203955 0.942289
0.328125 0.476562 0.742188 0.133427 -0.097476 0.986236
-0.328125 0.476562 0.742188 -0.133427 -0.097476 0.986236
0.429688 0.437500 0.718750 0.197821 -0.010437 0.980163
-0.429688 0.437500 0.718750 -0.197821 -0.010437 0.980163
0.601562 0.375000 0.664062 0.241340 -0.306711 0.920682
-0.601562 0.375000 0.664062 -0.241340 -0.306711 0.920682
0.640625 0.296875 0.648438 0.362957 -0.212256 0.907285
-0.640625 0.296875 0.648438 -0.362957 -0.212256 0.907285
0.625000 0.187500 0.648438 0.441450 -0.205847 0.873318
-0.625000 0.187500 0.648438 -0.441450 -0.205847 0.873318
0.492188 0.062500 0.671875 0.419446 -0.379742 0.824519
-0.492188 0.062500 0.671875 -0.419446 -0.379742 0.824519
0.375000 0.015625 0.703125 0.310617 -0.340342 0.887478
-0.375000 0.015625 0.703125 -0.310617 -0.340342 0.887478
0.203125 0.093750 0.742188 -0.134922 -0.214576 0.967315
-0.203125 0.093750 0.742188 0.134922 -0.214576 0.967315
0.164062 0.140625 0.750000 -0.310404 -0.169744 0.935301
0.000000 0.046875 0.726562 0.000000 0.013459 0.999908
-0.164062 0.140625 0.750000 0.310404 -0.169744 0.935301
0.125000 0.304688 0.765625 0.028382 -0.198553 0.979644
-0.125000 0.304688 0.765625 -0.028382 -0.198553 0.979644
0.000000 0.210938 0.765625 0.000000 -0.223457 0.974700
0.132812 0.210938 0.757812 -0.162389 -0.199744 0.966277
-0.132812 0.210938 0.757812 0.162389 -0.199744 0.966277
0.062500 -0.882812 0.695312 -0.025208 -0.411786 0.910916
0.000000 -0.890625 0.687500 0.000000 -0.331248 0.943510
-0.062500 -0.882812 0.695312 0.025208 -0.411786 0.910916
0.117188 -0.835938 0.710938 0.089053 -0.322886 0.942228
-0.117188 -0.835938 0.710938 -0.089053 -0.322886 0.942228
0.109375 -0.718750 0.734375 0.155889 -0.170629 0.972900
-0.109375 -0.718750 0.734375 -0.155889 -0.170629 0.972900
0.078125 -0.445312 0.750000 0.138615 0.002899 0.990326
0.117188 -0.687500 0.734375 0.180242 -0.057833 0.981903
-0.117188 -0.687500 0.734375 -0.180242 -0.057833 0.981903
-0.078125 -0.445312 0.750000 -0.138615 0.002899 0.990326
0.085938 -0.289062 0.742188 0.496872 -0.435591 0.750542
0.000000 -0.328125 0.742188 0.000000 -0.457564 0.889157
0.000000 -0.445312 0.750000 0.000000 -0.004089 0.999969
-0.085938 -0.289062 0.742188 -0.496872 -0.435591 0.750542
0.000000 -0.679688 0.734375 0.000000 -0.034211 0.999390
0.000000 -0.765625 0.734375 0.000000 -0.425733 0.904843
0.125000 -0.226562 0.750000 0.721549 -0.364605 0.588549
0.132812 -0.226562 0.796875 0.924589 -0.212928 0.315867
0.093750 -0.273438 0.781250 0.580309 -0.730644 0.359661
-0.093750 -0.273438 0.781250 -0.580309 -0.730644 0.359661
-0.132812 -0.226562 0.796875 -0.924589 -0.212928 0.315867
-0.125000 -0.226562 0.750000 -0.721549 -0.364605 0.588549
0.101562 -0.148438 0.742188 0.252785 0.347942 0.902768
0.109375 -0.132812 0.781250 0.621784 0.774407 0.116764
-0.109375 -0.132812 0.781250 -0.621784 0.774407 0.116764
-0.101562 -0.148438 0.742188 -0.252785 0.347942 0.902768
0.000000 -0.140625 0.742188 0.000000 0.569231 0.822138
0.039062 -0.125000 0.781250 -0.301798 0.941618 0.149174
-0.039062 -0.125000 0.781250 0.301798 0.941618 0.149174
0.000000 -0.195312 0.750000 0.000000 0.759239 0.650777
0.000000 -0.187500 0.796875 0.000000 0.785089 0.619343
0.000000 -0.320312 0.781250 0.000000 -0.857418 0.514573
0.078125 -0.250000 0.804688 0.220557 -0.563952 0.795770
0.000000 -0.289062 0.804688 0.000000 -0.528550 0.848872
-0.078125 -0.250000 0.804688 -0.220557 -0.563952 0.795770
0.000000 -0.203125 0.828125 0.000000 0.113559 0.993500
0.046875 -0.148438 0.812500 -0.199164 0.601733 0.773431
-0.046875 -0.148438 0.812500 0.199164 0.601733 0.773431
0.093750 -0.156250 0.812500 0.366375 0.475143 0.799982
-0.093750 -0.156250 0.812500 -0.366375 0.475143 0.799982
0.109375 -0.226562 0.828125 0.429640 -0.184942 0.883816
-0.109375 -0.226562 0.828125 -0.429640 -0.184942 0.883816
0.164062 -0.242188 0.710938 0.743034 0.029542 0.668569
-0.164062 -0.242188 0.710938 -0.743034 0.029542 0.668569
0.179688 -0.312500 0.710938 0.646382 0.142430 0.749565
-0.179688 -0.312500 0.710938 -0.646382 0.142430 0.749565
0.257812 -0.312500 0.554688 0.938505 0.325083 0.116031
-0.257812 -0.312500 0.554688 -0.938505 0.325083 0.116031
0.234375 -0.250000 0.554688 0.953429 0.281594 0.107883
-0.234375 -0.250000 0.554688 -0.953429 0.281594 0.107883
0.000000 -0.773438 0.718750 0.000000 -0.903104 0.429395
0.093750 -0.742188 0.726562 -0.114017 -0.615070 0.780145
-0.093750 -0.742188 0.726562 0.114017 -0.615070 0.780145
0.093750 -0.820312 0.710938 -0.650258 0.061495 0.757195
-0.093750 -0.820312 0.710938 0.650258 0.061495 0.757195
0.046875 -0.867188 0.687500 -0.370464 0.545000 0.752129
-0.046875 -0.867188 0.687500 0.370464 0.545000 0.752129
0.000000 -0.875000 0.687500 0.000000 0.646687 0.762719
0.046875 -0.851562 0.632812 -0.327219 0.474502 0.817133
0.000000 -0.859375 0.632812 0.000000 0.528855 0.848689
-0.046875 -0.851562 0.632812 0.327219 0.474502 0.817133
0.093750 -0.812500 0.640625 -0.674825 0.114689 0.728965
-0.093750 -0.812500 0.640625 0.674825 0.114689 0.728965
0.093750 -0.750000 0.664062 -0.516343 -0.704123 0.487411
-0.093750 -0.750000 0.664062 0.516343 -0.704123 0.487411
0.000000 -0.781250 0.656250 0.000000 -0.698843 0.715262
0.187500 0.156250 0.773438 -0.017029 -0.061007 0.997986
0.171875 0.218750 0.781250 0.164892 -0.089663 0.982208
-0.187500 0.156250 0.773438 0.017029 -0.061007 0.997986
-0.171875 0.218750 0.781250 -0.164892 -0.089663 0.982208
0.179688 0.296875 0.781250 0.235847 -0.108890 0.965636
-0.179688 0.296875 0.781250 -0.235847 -0.108890 0.965636
0.210938 0.375000 0.781250 0.163335 -0.083621 0.983001
-0.210938 0.375000 0.781250 -0.163335 -0.083621 0.983001
0.226562 0.109375 0.781250 0.012879 -0.156011 0.987640
-0.226562 0.109375 0.781250 -0.012879 -0.156011 0.987640
0.375000 0.062500 0.742188 0.199774 -0.207190 0.957671
-0.375000 0.062500 0.742188 -0.199774 -0.207190 0.957671
0.476562 0.101562 0.718750 0.285775 -0.042482 0.957335
-0.476562 0.101562 0.718750 -0.285775 -0.042482 0.957335
0.578125 0.195312 0.679688 0.298990 -0.093356 0.949675
-0.578125 0.195312 0.679688 -0.298990 -0.093356 0.949675
0.585938 0.289062 0.687500 0.186956 -0.065493 0.980163
-0.585938 0.289062 0.687500 -0.186956 -0.065493 0.980163
0.562500 0.351562 0.695312 0.306253 0.034181 0.951323
-0.562500 0.351562 0.695312 -0.306253 0.034181 0.951323
0.421875 0.398438 0.773438 0.173040 -0.110935 0.978637
-0.421875 0.398438 0.773438 -0.173040 -0.110935 0.978637
0.335938 0.429688 0.757812 0.165685 0.112888 0.979675
-0.335938 0.429688 0.757812 -0.165685 0.112888 0.979675
0.273438 0.421875 0.773438 0.182836 0.036683 0.982452
-0.273438 0.421875 0.773438 -0.182836 0.036683 0.982452
0.234375 0.359375 0.757812 0.500961 -0.383892 0.775628
0.281250 0.398438 0.765625 0.306284 -0.343120 0.887906
-0.234375 0.359375 0.757812 -0.500961 -0.383892 0.775628
-0.281250 0.398438 0.765625 -0.306284 -0.343120 0.887906
0.335938 0.406250 0.750000 0.002106 -0.495285 0.868709
-0.335938 0.406250 0.750000 -0.002106 -0.495285 0.868709
0.414062 0.390625 0.750000 -0.140080 -0.762047 0.632160
-0.414062 0.390625 0.750000 0.140080 -0.762047 0.632160
0.531250 0.335938 0.679688 -0.194311 -0.616047 0.763329
-0.531250 0.335938 0.679688 0.194311 -0.616047 0.763329
0.554688 0.281250 0.671875 -0.354869 -0.128605 0.925993
-0.554688 0.281250 0.671875 0.354869 -0.128605 0.925993
0.546875 0.210938 0.671875 -0.254860 0.224128 0.940611
-0.546875 0.210938 0.671875 0.254860 0.224128 0.940611
0.460938 0.117188 0.703125 -0.083102 0.541612 0.836482
-0.460938 0.117188 0.703125 0.083102 0.541612 0.836482
0.375000 0.085938 0.726562 0.148869 0.613483 0.775506
-0.375000 0.085938 0.726562 -0.148869 0.613483 0.775506
0.242188 0.125000 0.757812 0.424451 0.560900 0.710776
-0.242188 0.125000 0.757812 -0.424451 0.560900 0.710776
0.203125 0.171875 0.750000 0.687490 0.297403 0.662465
-0.203125 0.171875 0.750000 -0.687490 0.297403 0.662465
0.195312 0.296875 0.757812 0.746422 -0.213446 0.630268
-0.195312 0.296875 0.757812 -0.746422 -0.213446 0.630268
0.195312 0.226562 0.750000 0.805200 0.014954 0.592792
-0.195312 0.226562 0.750000 -0.805200 0.014954 0.592792
0.109375 0.460938 0.609375 -0.504593 0.862178 0.044801
0.000000 0.406250 0.601562 0.000000 0.879391 0.476028
-0.109375 0.460938 0.609375 0.504593 0.862178 0.044801
0.195312 0.664062 0.617188 -0.477004 0.509964 -0.715781
-0.195312 0.664062 0.617188 0.477004 0.509964 -0.715781
0.335938 0.687500 0.593750 0.114597 0.655507 -0.746422
-0.335938 0.687500 0.593750 -0.114597 0.655507 -0.746422
0.484375 0.554688 0.554688 0.308390 0.913816 -0.264199
-0.484375 0.554688 0.554688 -0.308390 0.913816 -0.264199
0.679688 0.453125 0.492188 0.351451 0.908750 -0.224921
-0.679688 0.453125 0.492188 -0.351451 0.908750 -0.224921
0.796875 0.406250 0.460938 0.739219 0.600482 -0.304849
-0.796875 0.406250 0.460938 -0.739219 0.600482 -0.304849
0.773438 0.164062 0.375000 0.939329 -0.306803 -0.153294
-0.773438 0.164062 0.375000 -0.939329 -0.306803 -0.153294
0.601562 0.000000 0.414062 0.576830 -0.811029 -0.097171
-0.601562 0.000000 0.414062 -0.576830 -0.811029 -0.097171
0.437500 -0.093750 0.468750 0.439375 -0.892514 -0.101596
-0.437500 -0.093750 0.468750 -0.439375 -0.892514 -0.101596
0.000000 -0.570312 0.320312 0.000000 -0.317789 -0.948149
0.000000 -0.484375 0.281250 0.000000 -0.805109 -0.593097
0.179688 -0.414062 0.257812 0.725974 -0.586505 -0.359081
0.125000 -0.539062 0.359375 0.337474 -0.253456 -0.906552
-0.179688 -0.414062 0.257812 -0.725974 -0.586505 -0.359081
-0.125000 -0.539062 0.359375 -0.337474 -0.253456 -0.906552
0.000000 -0.804688 0.343750 0.000000 -0.297800 -0.954619
0.140625 -0.757812 0.367188 0.129307 -0.178899 -0.975311
-0.140625 -0.757812 0.367188 -0.129307 -0.178899 -0.975311
0.000000 -0.976562 0.460938 0.000000 -0.850795 -0.525468
0.164062 -0.945312 0.437500 0.099277 -0.767937 -0.632740
-0.164062 -0.945312 0.437500 -0.099277 -0.767937 -0.632740
0.328125 -0.914062 0.398438 0.558641 -0.467910 -0.684774
-0.328125 -0.914062 0.398438 -0.558641 -0.467910 -0.684774
0.289062 -0.710938 0.382812 0.605792 0.020814 -0.795312
-0.289062 -0.710938 0.382812 -0.605792 0.020814 -0.795312
0.250000 -0.500000 0.390625 0.776605 -0.009339 -0.629871
-0.250000 -0.500000 0.390625 -0.776605 -0.009339 -0.629871
0.234375 -0.351562 0.406250 0.960143 -0.001648 -0.279427
-0.234375 -0.351562 0.406250 -0.960143 -0.001648 -0.279427
0.218750 -0.281250 0.429688 0.973113 -0.230201 0.000153
0.210938 -0.226562 0.468750 0.953703 -0.199866 0.224647
-0.210938 -0.226562 0.468750 -0.953703 -0.199866 0.224647
-0.218750 -0.281250 0.429688 -0.973113 -0.230201 0.000153
0.203125 -0.171875 0.500000 0.814020 -0.554369 0.173162
-0.203125 -0.171875 0.500000 -0.814020 -0.554369 0.173162
0.000000 0.070312 -0.828125 0.000000 -0.300424 -0.953795
0.335938 0.054688 -0.664062 0.423658 -0.324015 -0.845851
0.343750 -0.148438 -0.539062 0.519089 -0.655629 -0.548296
0.000000 -0.195312 -0.671875 0.000000 -0.696646 -0.717368
-0.343750 -0.148438 -0.539062 -0.519089 -0.655629 -0.548296
-0.335938 0.054688 -0.664062 -0.423658 -0.324015 -0.845851
0.296875 -0.312500 -0.265625 0.521348 -0.825465 -0.216224
0.000000 -0.382812 -0.351562 0.000000 -0.940977 -0.338450
-0.296875 -0.312500 -0.265625 -0.521348 -0.825465 -0.216224
0.210938 -0.390625 0.164062 0.588733 -0.808069 -0.018525
0.000000 -0.460938 0.187500 0.000000 -0.986267 -0.164983
-0.210938 -0.390625 0.164062 -0.588733 -0.808069 -0.018525
0.734375 -0.046875 0.070312 0.715201 -0.694998 0.073611
0.851562 0.234375 0.054688 0.976196 -0.201941 0.078707
-0.734375 -0.046875 0.070312 -0.715201 -0.694998 0.073611
-0.851562 0.234375 0.054688 -0.976196 -0.201941 0.078707
0.000000 0.562500 -0.851562 0.000000 0.314066 -0.949370
0.460938 0.437500 -0.703125 0.453413 0.196875 -0.869259
-0.460938 0.437500 -0.703125 -0.453413 0.196875 -0.869259
0.000000 0.898438 0.289062 0.000000 0.826655 0.562670
0.453125 0.851562 0.234375 0.461043 0.733787 0.498947
0.453125 0.929688 -0.070312 0.419752 0.906949 0.034852
0.000000 0.984375 -0.078125 0.000000 0.999725 0.023194
-0.453125 0.929688 -0.070312 -0.419752 0.906949 0.034852
-0.453125 0.851562 0.234375 -0.461043 0.733787 0.498947
0.453125 0.867188 -0.382812 0.425825 0.803186 -0.416547
0.000000 0.898438 -0.546875 0.000000 0.832545 -0.553941
-0.453125 0.867188 -0.382812 -0.425825 0.803186 -0.416547
0.726562 0.406250 0.335938 0.765221 0.624409 0.156529
0.632812 0.453125 0.281250 0.472060 0.777764 0.414930
-0.726562 0.406250 0.335938 -0.765221 0.624409 0.156529
-0.632812 0.453125 0.281250 -0.472060 0.777764 0.414930
0.796875 0.562500 0.125000 0.747520 0.532609 0.396863
0.640625 0.703125 0.054688 0.651387 0.681448 0.333537
-0.796875 0.562500 0.125000 -0.747520 0.532609 0.396863
-0.640625 0.703125 0.054688 -0.651387 0.681448 0.333537
0.796875 0.617188 -0.117188 0.854793 0.518052 -0.030122
0.640625 0.750000 -0.195312 0.678793 0.731773 -0.061190
-0.796875 0.617188 -0.117188 -0.854793 0.518052 -0.030122
-0.640625 0.750000 -0.195312 -0.678793 0.731773 -0.061190
0.796875 0.539062 -0.359375 0.873867 0.307016 -0.376873
0.640625 0.679688 -0.445312 0.644032 0.537950 -0.543840
-0.796875 0.539062 -0.359375 -0.873867 0.307016 -0.376873
-0.640625 0.679688 -0.445312 -0.644032 0.537950 -0.543840
0.773438 0.265625 -0.437500 0.625996 -0.025941 -0.779382
0.617188 0.328125 -0.585938 0.586016 -0.015473 -0.810114
-0.617188 0.328125 -0.585938 -0.586016 -0.015473 -0.810114
-0.773438 0.265625 -0.437500 -0.625996 -0.025941 -0.779382
0.460938 0.523438 0.429688 0.391614 0.828028 0.401196
-0.460938 0.523438 0.429688 -0.391614 0.828028 0.401196
0.000000 0.570312 0.570312 0.000000 0.620380 0.784265
0.859375 0.320312 -0.046875 0.998932 -0.045503 0.006165
-0.859375 0.320312 -0.046875 -0.998932 -0.045503 0.006165
0.820312 0.328125 -0.203125 0.896451 0.304361 0.322001
-0.820312 0.328125 -0.203125 -0.896451 0.304361 0.322001
0.429688 -0.195312 -0.210938 0.580889 -0.800684 -0.146336
0.406250 -0.171875 0.148438 0.573046 -0.803735 0.160009
-0.429688 -0.195312 -0.210938 -0.580889 -0.800684 -0.146336
-0.406250 -0.171875 0.148438 -0.573046 -0.803735 0.160009
0.593750 -0.125000 -0.164062 0.274422 -0.959990 -0.055208
-0.593750 -0.125000 -0.164062 -0.274422 -0.959990 -0.055208
0.640625 -0.007812 -0.429688 0.402020 -0.616718 -0.676748
0.484375 0.023438 -0.546875 0.544298 -0.495865 -0.676626
-0.484375 0.023438 -0.546875 -0.544298 -0.495865 -0.676626
-0.640625 -0.007812 -0.429688 -0.402020 -0.616718 -0.676748
1.023438 0.476562 -0.312500 0.016266 0.873623 0.486282
0.890625 0.406250 -0.234375 -0.287759 0.738792 0.609394
0.921875 0.359375 -0.218750 0.458968 -0.063112 0.886166
1.015625 0.414062 -0.289062 0.542039 -0.067415 0.837611
-0.921875 0.359375 -0.218750 -0.458968 -0.063112 0.886166
-0.890625 0.406250 -0.234375 0.287759 0.738792 0.609394
-1.023438 0.476562 -0.312500 -0.016266 0.873623 0.486282
-1.015625 0.414062 -0.289062 -0.542039 -0.067415 0.837611
1.187500 0.437500 -0.390625 0.317362 -0.092959 0.943724
1.234375 0.507812 -0.421875 0.360363 0.860530 0.359996
-1.187500 0.437500 -0.390625 -0.317362 -0.092959 0.943724
-1.234375 0.507812 -0.421875 -0.360363 0.860530 0.359996
1.265625 0.289062 -0.406250 -0.120060 -0.089724 0.988678
1.351562 0.320312 -0.421875 0.789575 0.178991 0.586932
-1.265625 0.289062 -0.406250 0.120060 -0.089724 0.988678
-1.351562 0.320312 -0.421875 -0.789575 0.178991 0.586932
1.210938 0.078125 -0.406250 -0.023988 0.273934 0.961425
1.281250 0.054688 -0.429688 0.673116 -0.499832 0.545000
-1.210938 0.078125 -0.406250 0.023988 0.273934 0.961425
-1.281250 0.054688 -0.429688 -0.673116 -0.499832 0.545000
1.031250 -0.039062 -0.304688 0.492172 0.273751 0.826319
1.039062 -0.101562 -0.328125 0.471877 -0.779626 0.411634
-1.031250 -0.039062 -0.304688 -0.492172 0.273751 0.826319
-1.039062 -0.101562 -0.328125 -0.471877 -0.779626 0.411634
0.828125 -0.070312 -0.132812 0.341319 0.352672 0.871242
0.773438 -0.140625 -0.125000 -0.043886 -0.648122 0.760247
-0.828125 -0.070312 -0.132812 -0.341319 0.352672 0.871242
-0.773438 -0.140625 -0.125000 0.043886 -0.648122 0.760247
1.039062 0.000000 -0.367188 -0.166540 0.953887 0.249672
0.882812 -0.023438 -0.210938 0.232978 0.878811 0.416364
-0.882812 -0.023438 -0.210938 -0.232978 0.878811 0.416364
-1.039062 0.000000 -0.367188 0.166540 0.953887 0.249672
1.187500 0.093750 -0.445312 -0.761345 0.647084 0.039918
-1.187500 0.093750 -0.445312 0.761345 0.647084 0.039918
1.234375 0.250000 -0.445312 -0.981017 -0.093387 0.169805
-1.234375 0.250000 -0.445312 0.981017 -0.093387 0.169805
1.171875 0.359375 -0.437500 -0.140965 -0.772790 0.618793
-1.171875 0.359375 -0.437500 0.140965 -0.772790 0.618793
1.023438 0.343750 -0.359375 0.558733 -0.658284 0.504410
-1.023438 0.343750 -0.359375 -0.558733 -0.658284 0.504410
0.945312 0.304688 -0.289062 0.687796 -0.553331 0.469802
-0.945312 0.304688 -0.289062 -0.687796 -0.553331 0.469802
0.718750 -0.023438 -0.171875 0.745048 0.085452 0.661458
0.726562 0.000000 -0.070312 0.861507 -0.487991 -0.139958
-0.718750 -0.023438 -0.171875 -0.745048 0.085452 0.661458
-0.726562 0.000000 -0.070312 -0.861507 -0.487991 -0.139958
0.843750 0.289062 -0.210938 0.742698 -0.261116 0.616596
-0.843750 0.289062 -0.210938 -0.742698 -0.261116 0.616596
0.812500 -0.015625 -0.273438 0.593310 0.566332 0.572008
-0.812500 -0.015625 -0.273438 -0.593310 0.566332 0.572008
0.843750 0.015625 -0.273438 0.883663 -0.062441 0.463912
0.718750 0.039062 -0.187500 0.920988 -0.174902 0.348033
-0.718750 0.039062 -0.187500 -0.920988 -0.174902 0.348033
-0.843750 0.015625 -0.273438 -0.883663 -0.062441 0.463912
0.757812 0.093750 -0.273438 0.858852 0.037141 0.510819
0.820312 0.085938 -0.273438 0.573107 0.726249 0.379528
-0.757812 0.093750 -0.273438 -0.858852 0.037141 0.510819
-0.820312 0.085938 -0.273438 -0.573107 0.726249 0.379528
0.835938 0.171875 -0.273438 0.748131 -0.579913 0.322398
0.796875 0.203125 -0.210938 0.871975 -0.424024 0.244606
-0.796875 0.203125 -0.210938 -0.871975 -0.424024 0.244606
-0.835938 0.171875 -0.273438 -0.748131 -0.579913 0.322398
0.890625 0.242188 -0.265625 0.696310 -0.541185 0.471419
-0.890625 0.242188 -0.265625 -0.696310 -0.541185 0.471419
0.890625 0.234375 -0.320312 0.666860 -0.434767 0.605182
0.953125 0.289062 -0.343750 0.635792 -0.409162 0.654439
-0.890625 0.234375 -0.320312 -0.666860 -0.434767 0.605182
-0.953125 0.289062 -0.343750 -0.635792 -0.409162 0.654439
0.843750 0.171875 -0.320312 0.571398 -0.425855 0.701498
-0.843750 0.171875 -0.320312 -0.571398 -0.425855 0.701498
0.765625 0.093750 -0.320312 0.783685 0.251350 0.567980
-0.765625 0.093750 -0.320312 -0.783685 0.251350 0.567980
0.828125 0.078125 -0.320312 0.444716 0.374004 0.813807
-0.828125 0.078125 -0.320312 -0.444716 0.374004 0.813807
0.851562 0.015625 -0.320312 0.373882 0.368725 0.851009
-0.851562 0.015625 -0.320312 -0.373882 0.368725 0.851009
0.812500 -0.015625 -0.320312 0.660024 0.349498 0.664968
-0.812500 -0.015625 -0.320312 -0.660024 0.349498 0.664968
0.882812 -0.015625 -0.265625 -0.050691 0.951842 0.302316
-0.882812 -0.015625 -0.265625 0.050691 0.951842 0.302316
1.039062 0.328125 -0.414062 0.484420 -0.337321 0.807154
-1.039062 0.328125 -0.414062 -0.484420 -0.337321 0.807154
1.187500 0.343750 -0.484375 -0.248451 -0.582598 0.773827
-1.187500 0.343750 -0.484375 0.248451 -0.582598 0.773827
1.257812 0.242188 -0.492188 -0.743309 -0.097324 0.661824
-1.257812 0.242188 -0.492188 0.743309 -0.097324 0.661824
1.210938 0.085938 -0.484375 -0.539171 0.450636 0.711447
-1.210938 0.085938 -0.484375 0.539171 0.450636 0.711447
1.046875 0.000000 -0.421875 0.087283 0.740043 0.666829
-1.046875 0.000000 -0.421875 -0.087283 0.740043 0.666829
0.937500 0.062500 -0.335938 0.385449 0.116214 0.915342
0.890625 0.109375 -0.328125 0.198340 0.005127 0.980102
-0.937500 0.062500 -0.335938 -0.385449 0.116214 0.915342
-0.890625 0.109375 -0.328125 -0.198340 0.005127 0.980102
1.000000 0.125000 -0.367188 0.431532 -0.033113 0.901456
0.960938 0.171875 -0.351562 0.328104 0.000183 0.944609
-1.000000 0.125000 -0.367188 -0.431532 -0.033113 0.901456
-0.960938 0.171875 -0.351562 -0.328104 0.000183 0.944609
1.054688 0.187500 -0.382812 0.344737 -0.076693 0.935545
1.015625 0.234375 -0.375000 0.317820 0.093661 0.943510
-1.054688 0.187500 -0.382812 -0.344737 -0.076693 0.935545
-1.015625 0.234375 -0.375000 -0.317820 0.093661 0.943510
1.109375 0.210938 -0.390625 0.436476 -0.013581 0.899594
1.085938 0.273438 -0.390625 0.357311 0.298013 0.885128
-1.109375 0.210938 -0.390625 -0.436476 -0.013581 0.899594
-1.085938 0.273438 -0.390625 -0.357311 0.298013 0.885128
0.789062 -0.125000 -0.328125 -0.079745 -0.845271 -0.528336
1.039062 -0.085938 -0.492188 -0.041841 -0.698874 -0.714011
-0.789062 -0.125000 -0.328125 0.079745 -0.845271 -0.528336
-1.039062 -0.085938 -0.492188 0.041841 -0.698874 -0.714011
1.312500 0.054688 -0.531250 0.614948 -0.490555 -0.617359
-1.312500 0.054688 -0.531250 -0.614948 -0.490555 -0.617359
1.367188 0.296875 -0.500000 0.923399 0.085604 -0.374096
-1.367188 0.296875 -0.500000 -0.923399 0.085604 -0.374096
1.250000 0.468750 -0.546875 0.304758 0.621876 -0.721335
-1.250000 0.468750 -0.546875 -0.304758 0.621876 -0.721335
1.023438 0.437500 -0.484375 -0.417646 0.558580 -0.716605
-1.023438 0.437500 -0.484375 0.417646 0.558580 -0.716605
0.859375 0.382812 -0.382812 -0.656178 0.571520 -0.492691
-0.859375 0.382812 -0.382812 0.656178 0.571520 -0.492691
4 0 1 2 3
4 4 5 6 7
4 3 2 8 9
4 10 4 7 11
4 2 12 13 8
4 14 15 4 10
4 1 16 12 2
4 15 17 5 4
4 16 18 19 12
4 20 21 17 15
4 12 19 22 13
4 23 20 15 14
4 19 24 25 22
4 26 27 20 23
4 18 28 24 19
4 27 29 21 20
4 28 30 31 24
4 32 33 29 27
4 24 31 34 25
4 35 32 27 26
4 31 36 37 34
4 38 39 32 35
4 30 40 36 31
4 39 41 33 32
4 40 42 43 36
4 44 45 41 39
4 36 43 46 37
4 47 44 39 38
4 43 3 9 46
4 11 7 44 47
4 42 0 3 43
4 7 6 45 44
4 0 42 48 49
4 50 45 6 51
4 42 40 52 48
4 53 41 45 50
4 40 30 54 52
4 55 33 41 53
4 30 28 56 54
4 57 29 33 55
4 28 18 58 56
4 59 21 29 57
4 18 16 60 58
4 61 17 21 59
4 16 1 62 60
4 63 5 17 61
4 1 0 49 62
4 51 6 5 63
3 64 62 49
3 51 63 65
3 60 62 64
3 65 63 61
3 64 58 60
3 61 59 65
3 64 56 58
3 59 57 65
3 64 54 56
3 57 55 65
3 64 52 54
3 55 53 65
3 64 48 52
3 53 50 65
3 64 49 48
3 50 51 65
4 66 67 68 69
4 68 70 71 69
4 72 73 67 66
4 70 74 75 71
4 76 77 73 72
4 74 78 79 75
4 80 81 77 76
4 78 82 83 79
4 84 85 81 80
4 82 86 87 83
4 88 89 90 91
4 92 93 94 95
4 89 96 97 90
4 98 99 93 92
4 96 100 101 97
4 102 103 99 98
4 100 104 105 101
4 106 107 103 102
4 104 108 109 105
4 110 111 107 106
4 108 112 113 109
4 114 115 111 110
4 112 116 117 113
4 118 119 115 114
4 116 120 121 117
4 122 123 119 118
4 120 124 125 121
4 126 127 123 122
4 124 128 129 125
4 129 128 127 126
4 130 131 121 125
4 122 132 133 126
4 131 134 117 121
4 118 135 132 122
4 136 113 117 134
4 118 114 137 135
4 138 109 113 136
4 114 110 139 137
4 140 105 109 138
4 110 106 141 139
4 142 101 105 140
4 106 102 143 141
4 144 97 101 142
4 102 98 145 143
4 146 90 97 144
4 98 92 147 145
4 148 91 90 146
4 92 95 149 147
4 148 150 151 91
4 151 152 149 95
4 130 125 129 153
4 129 126 133 154
4 153 129 155 156
4 155 129 154 157
4 151 150 156 155
4 157 152 151 155
4 158 159 68 67
4 68 159 160 70
4 161 158 67 73
4 70 160 162 74
4 163 161 73 77
4 74 162 164 78
4 85 165 166 81
4 167 168 86 82
4 163 77 81 166
4 82 78 164 167
4 169 170 171 165
4 171 170 172 168
4 166 165 171 173
4 171 168 167 173
4 174 163 166 173
4 167 164 174 173
4 175 176 177 169
4 178 179 180 172
4 181 182 176 175
4 179 183 184 180
4 185 186 182 181
4 183 187 185 184
4 188 189 186 185
4 187 189 188 185
4 170 169 177 190
4 178 172 170 190
4 190 177 191 192
4 193 178 190 192
4 189 194 195 186
4 196 194 189 187
4 186 195 197 182
4 198 196 187 183
4 182 197 199 176
4 200 198 183 179
4 176 199 191 177
4 193 200 179 178
4 194 199 197 195
4 198 200 194 196
4 194 192 191 199
4 193 192 194 200
4 185 181 91 151
4 95 184 185 151
4 181 175 201 91
4 202 180 184 95
4 175 169 203 201
4 204 172 180 202
4 169 165 85 203
4 86 168 172 204
4 84 205 203 85
4 204 206 87 86
4 205 207 201 203
4 202 208 206 204
4 88 91 201 207
4 202 95 94 208
4 163 174 209 210
4 209 174 164 211
4 161 163 210 212
4 211 164 162 213
4 158 161 212 214
4 213 162 160 215
4 159 158 214 216
4 215 160 159 216
4 216 214 217 218
4 219 215 216 218
4 214 212 220 217
4 221 213 215 219
4 212 210 222 220
4 223 211 213 221
4 210 209 224 222
4 224 209 211 223
4 224 218 217 222
4 219 218 224 223
3 222 217 220
3 221 219 223
4 156 150 225 226
4 227 152 157 228
4 153 156 226 229
4 228 157 154 230
4 130 153 229 231
4 230 154 133 232
4 150 148 233 225
4 234 149 152 227
4 148 146 235 233
4 236 147 149 234
4 146 144 237 235
4 238 145 147 236
4 144 142 239 237
4 240 143 145 238
4 142 140 241 239
4 242 141 143 240
4 140 138 243 241
4 244 139 141 242
4 138 136 245 243
4 246 137 139 244
4 136 134 247 245
4 248 135 137 246
4 134 131 249 247
4 250 132 135 248
4 131 130 231 249
4 232 133 132 250
4 249 231 251 252
4 253 232 250 254
4 247 249 252 255
4 254 250 248 256
4 245 247 255 257
4 256 248 246 258
4 243 245 257 259
4 258 246 244 260
4 241 243 259 261
4 260 244 242 262
4 239 241 261 263
4 262 242 240 264
4 237 239 263 265
4 264 240 238 266
4 235 237 265 267
4 266 238 236 268
4 233 235 267 269
4 268 236 234 270
4 225 233 269 271
4 270 234 227 272
4 231 229 273 251
4 274 230 232 253
4 229 226 275 273
4 276 228 230 274
4 226 225 271 275
4 272 227 228 276
4 128 124 277 278
4 279 127 128 278
4 124 120 280 277
4 281 123 127 279
4 120 116 282 280
4 283 119 123 281
4 116 112 284 282
4 285 115 119 283
4 112 108 286 284
4 287 111 115 285
4 108 104 288 286
4 289 107 111 287
4 104 100 290 288
4 291 103 107 289
4 100 96 292 290
4 293 99 103 291
4 96 89 294 292
4 295 93 99 293
4 296 297 298 299
4 300 297 296 301
4 302 296 299 303
4 301 296 302 304
4 305 302 303 306
4 304 302 305 307
4 66 69 305 306
4 305 69 71 307
4 72 66 306 308
4 307 71 75 309
4 76 72 308 310
4 309 75 79 311
4 80 76 310 312
4 311 79 83 313
4 310 303 299 312
4 301 304 311 313
4 310 308 306 303
4 307 309 311 304
4 314 312 299 298
4 301 313 315 300
4 84 80 312 314
4 313 83 87 315
4 205 316 317 207
4 318 319 206 208
4 84 314 316 205
4 319 315 87 206
4 88 207 317 320
4 318 208 94 321
4 88 320 294 89
4 295 321 94 93
4 322 323 324 325
4 326 327 322 325
4 325 324 328 329
4 330 326 325 329
4 329 328 331 332
4 333 330 329 332
4 332 331 298 297
4 300 333 332 297
4 314 298 331 316
4 333 300 315 319
4 290 292 334 335
4 336 293 291 337
4 338 339 323 322
4 327 340 338 322
4 341 342 343 344
4 345 346 341 344
4 344 343 347 348
4 349 345 344 348
4 348 347 339 338
4 340 349 348 338
4 286 288 350 351
4 352 289 287 353
4 351 350 354 355
4 356 352 353 357
4 355 354 358 359
4 360 356 357 361
4 359 358 362 363
4 364 360 361 365
4 366 367 363 362
4 365 368 369 364
4 339 347 363 367
4 365 349 340 368
4 347 343 359 363
4 361 345 349 365
4 343 342 355 359
4 357 346 345 361
4 342 370 351 355
4 353 371 346 357
4 284 286 351 370
4 353 287 285 371
4 372 370 342 341
4 346 371 372 341
4 277 280 282 284
4 283 281 279 285
4 277 284 370 372
4 371 285 279 372
3 278 277 372
3 372 279 278
4 288 290 335 350
4 337 291 289 352
4 335 373 354 350
4 356 374 337 352
4 373 375 358 354
4 360 376 374 356
4 366 362 358 375
4 360 364 369 376
4 331 328 377 378
4 379 330 333 380
4 334 378 377 381
4 379 380 336 382
4 292 294 378 334
4 380 295 293 336
4 294 317 316 378
4 319 318 295 380
3 316 331 378
3 380 333 319
3 294 320 317
3 318 321 295
4 366 383 384 367
4 385 386 369 368
4 339 367 384 323
4 385 368 340 327
4 381 377 384 383
4 385 379 382 386
4 328 324 384 377
4 385 326 330 379
3 323 384 324
3 326 385 327
4 387 388 389 390
4 391 392 393 394
4 387 390 395 396
4 397 394 393 398
4 396 395 399 400
4 401 397 398 402
4 400 399 403 404
4 405 401 402 406
4 404 403 407 408
4 409 405 406 410
4 408 407 411 412
4 413 409 410 414
4 407 415 416 411
4 417 418 409 413
4 403 419 415 407
4 418 420 405 409
4 399 421 419 403
4 420 422 401 405
4 395 423 421 399
4 422 424 397 401
4 390 425 423 395
4 424 426 394 397
4 390 389 427 425
4 428 391 394 426
4 334 381 429 430
4 431 382 336 432
4 381 412 411 429
4 413 414 382 431
4 335 334 430 373
4 432 336 337 374
4 375 433 389 388
4 391 434 376 392
4 411 416 435 429
4 436 417 413 431
4 437 438 429 435
4 431 439 440 436
4 441 438 437 442
4 440 439 443 444
4 445 446 438 441
4 439 447 448 443
4 433 446 445 449
4 448 447 434 450
4 389 433 449 427
4 450 434 391 428
4 373 446 433 375
4 434 447 374 376
4 373 430 438 446
4 439 432 374 447
3 430 429 438
3 439 431 432
4 427 449 451 452
4 453 450 428 454
4 449 445 455 451
4 456 448 450 453
4 445 441 457 455
4 458 443 448 456
4 441 442 459 457
4 460 444 443 458
4 442 437 461 459
4 462 440 444 460
4 437 435 463 461
4 464 436 440 462
4 435 416 465 463
4 466 417 436 464
4 425 427 452 467
4 454 428 426 468
4 423 425 467 469
4 468 426 424 470
4 421 423 469 471
4 470 424 422 472
4 419 421 471 473
4 472 422 420 474
4 415 419 473 475
4 474 420 418 476
4 416 415 475 465
4 476 418 417 466
4 459 461 477 478
4 479 462 460 480
4 478 477 481 482
4 483 479 480 484
4 482 481 485 486
4 487 483 484 488
4 486 485 489 490
4 491 487 488 492
4 467 452 486 490
4 488 454 468 492
4 451 482 486 452
4 488 484 453 454
4 451 455 478 482
4 480 456 453 484
4 459 478 455 457
4 456 480 460 458
4 463 465 477 461
4 479 466 464 462
4 475 481 477 465
4 479 483 476 466
4 473 485 481 475
4 483 487 474 476
4 471 489 485 473
4 487 491 472 474
4 469 490 489 471
4 491 492 470 472
3 467 490 469
3 470 492 468
4 408 412 493 494
4 495 414 410 496
4 404 408 494 497
4 496 410 406 498
4 400 404 497 499
4 498 406 402 500
4 396 400 499 501
4 500 402 398 502
4 387 396 501 503
4 502 398 393 504
4 388 387 503 505
4 504 393 392 506
4 503 494 493 505
4 495 496 504 506
4 503 501 497 494
4 498 502 504 496
3 501 499 497
3 498 500 502
4 366 375 388 505
4 392 376 369 506
4 366 505 493 383
4 495 506 369 386
4 381 383 493 412
4 495 386 382 414
